<svg xmlns="http://www.w3.org/2000/svg" xmlns:xlink="http://www.w3.org/1999/xlink" width="1280" height="1076.95"><rect width="1280" height="1076.95" rx="5" ry="5" class="a"/><svg y="0%" x="0%"><circle cx="20" cy="20" r="6" fill="#ff5f58"/><circle cx="40" cy="20" r="6" fill="#ffbd2e"/><circle cx="60" cy="20" r="6" fill="#18c132"/></svg><svg height="976.95" viewBox="0 0 120 97.695" width="1200" x="35" xmlns="http://www.w3.org/2000/svg" xmlns:xlink="http://www.w3.org/1999/xlink" y="70"><style>@keyframes n{0%{transform:translateX(0)}.1%{transform:translateX(-240px)}9%{transform:translateX(-360px)}18%{transform:translateX(-480px)}18.8%{transform:translateX(-840px)}29.6%{transform:translateX(-960px)}38.5%{transform:translateX(-1080px)}39.2%{transform:translateX(-1440px)}50%{transform:translateX(-1560px)}58.9%{transform:translateX(-1680px)}59.7%{transform:translateX(-2040px)}70.4%{transform:translateX(-2160px)}81.1%{transform:translateX(-2280px)}82.1%{transform:translateX(-4320px)}91.1%{transform:translateX(-4440px)}to{transform:translateX(-4560px)}}.a{fill:#282d35}.f,.g{fill:#b9c0cb;white-space:pre}.g{fill:#a8cc8c}.h{fill:#66c2cd}.h,.i,.j,.k{white-space:pre}.i{fill:#71bef2;font-weight:700}.j,.k{fill:#e88388}.k{fill:#b9c0cb;font-weight:700}</style><g font-family="Monaco,Consolas,Menlo,'Bitstream Vera Sans Mono','Powerline Symbols',monospace" font-size="1.67"><defs><symbol id="1"><text y="1.67" class="f">Resolving</text><text x="10.02" y="1.67" class="f">conflicting</text><text x="22.044" y="1.67" class="f">AI</text><text x="25.05" y="1.67" class="f">outputs</text></symbol><symbol id="2"><text y="1.67" class="f">→</text><text x="2.004" y="1.67" class="f">Initializing</text><text x="15.03" y="1.67" class="f">workspace</text></symbol><symbol id="3"><text y="1.67" class="f">$</text><text x="2.004" y="1.67" class="f">arc</text><text x="6.012" y="1.67" class="f">init</text></symbol><symbol id="4"><text y="1.67" class="g">✔</text><text x="2.004" y="1.67" class="g">Initialized</text><text x="14.028" y="1.67" class="g">Confluxa</text><text x="23.046" y="1.67" class="g">workspace</text></symbol><symbol id="5"><text x="2.004" y="1.67" class="h">-</text><text x="4.008" y="1.67" class="h">.confluxa/context.json</text></symbol><symbol id="6"><text x="2.004" y="1.67" class="h">-</text><text x="4.008" y="1.67" class="h">.confluxa/messages/</text></symbol><symbol id="7"><text x="2.004" y="1.67" class="h">-</text><text x="4.008" y="1.67" class="h">.confluxa/tasks/</text></symbol><symbol id="8"><text y="1.67" class="f">→</text><text x="2.004" y="1.67" class="f">Asking</text><text x="9.018" y="1.67" class="f">first</text><text x="15.03" y="1.67" class="f">AI</text><text x="18.036" y="1.67" class="f">agent</text><text x="24.048" y="1.67" class="f">(GPT)</text></symbol><symbol id="9"><text x="3.006" y="1.67" class="f">Suggestion:</text><text x="15.03" y="1.67" class="f">Use</text><text x="19.038" y="1.67" class="f">JWT</text></symbol><symbol id="10"><text y="1.67" class="f">$</text><text x="2.004" y="1.67" class="f">arc</text><text x="6.012" y="1.67" class="f">publish</text><text x="14.028" y="1.67" class="f">--task</text><text x="21.042" y="1.67" class="f">auth</text><text x="26.052" y="1.67" class="f">--type</text><text x="33.066" y="1.67" class="f">proposal</text><text x="42.084" y="1.67" class="f">--content</text><text x="52.104" y="1.67" class="f">&quot;Use</text><text x="57.114" y="1.67" class="f">JWT&quot;</text><text x="62.124" y="1.67" class="f">--agent</text><text x="70.14" y="1.67" class="f">gpt</text></symbol><symbol id="11"><text y="1.67" class="g">✔</text><text x="2.004" y="1.67" class="g">Published</text><text x="12.024" y="1.67" class="g">proposal</text><text x="21.042" y="1.67" class="g">message</text><text x="29.058" y="1.67" class="g">for</text><text x="33.066" y="1.67" class="g">task</text><text x="38.076" y="1.67" class="g">&quot;auth&quot;</text></symbol><symbol id="12"><text x="2.004" y="1.67" class="h">Agent:</text><text x="9.018" y="1.67" class="h">gpt</text></symbol><symbol id="13"><text x="2.004" y="1.67" class="h">Saved</text><text x="8.016" y="1.67" class="h">to</text><text x="11.022" y="1.67" class="h">workspace</text></symbol><symbol id="14"><text y="1.67" class="f">→</text><text x="2.004" y="1.67" class="f">Asking</text><text x="9.018" y="1.67" class="f">second</text><text x="16.032" y="1.67" class="f">AI</text><text x="19.038" y="1.67" class="f">agent</text><text x="25.05" y="1.67" class="f">(Claude)</text></symbol><symbol id="15"><text x="3.006" y="1.67" class="f">Suggestion:</text><text x="15.03" y="1.67" class="f">Use</text><text x="19.038" y="1.67" class="f">OAuth</text></symbol><symbol id="16"><text y="1.67" class="f">$</text><text x="2.004" y="1.67" class="f">arc</text><text x="6.012" y="1.67" class="f">publish</text><text x="14.028" y="1.67" class="f">--task</text><text x="21.042" y="1.67" class="f">auth</text><text x="26.052" y="1.67" class="f">--type</text><text x="33.066" y="1.67" class="f">proposal</text><text x="42.084" y="1.67" class="f">--content</text><text x="52.104" y="1.67" class="f">&quot;Use</text><text x="57.114" y="1.67" class="f">OAuth&quot;</text><text x="64.128" y="1.67" class="f">--agent</text><text x="72.144" y="1.67" class="f">claude</text></symbol><symbol id="17"><text x="2.004" y="1.67" class="h">Agent:</text><text x="9.018" y="1.67" class="h">claude</text></symbol><symbol id="18"><text y="1.67" class="f">→</text><text x="2.004" y="1.67" class="f">Multiple</text><text x="11.022" y="1.67" class="f">AI</text><text x="14.028" y="1.67" class="f">agents</text><text x="21.042" y="1.67" class="f">disagree</text></symbol><symbol id="19"><text y="1.67" class="f">→</text><text x="2.004" y="1.67" class="f">Resolving</text><text x="12.024" y="1.67" class="f">conflict</text><text x="21.042" y="1.67" class="f">with</text><text x="26.052" y="1.67" class="f">ARC</text></symbol><symbol id="20"><text y="1.67" class="f">$</text><text x="2.004" y="1.67" class="f">arc</text><text x="6.012" y="1.67" class="f">resolve</text><text x="14.028" y="1.67" class="f">auth</text></symbol><symbol id="21"><text y="1.67" class="i">===</text><text x="4.008" y="1.67" class="i">ARC</text><text x="8.016" y="1.67" class="i">Resolution</text><text x="19.038" y="1.67" class="i">===</text></symbol><symbol id="22"><text y="1.67" class="f">Task:</text><text x="6.012" y="1.67" class="f">auth</text></symbol><symbol id="23"><text y="1.67" class="f">Status:</text><text x="8.016" y="1.67" class="j">CONFLICT</text><text x="17.034" y="1.67" class="j">DETECTED</text></symbol><symbol id="24"><text y="1.67" class="k">Reason:</text></symbol><symbol id="25"><text y="1.67" class="f">Multiple</text><text x="9.018" y="1.67" class="f">agents</text><text x="16.032" y="1.67" class="f">provided</text><text x="25.05" y="1.67" class="f">different</text><text x="35.07" y="1.67" class="f">approaches</text><text x="46.092" y="1.67" class="f">for</text><text x="50.1" y="1.67" class="f">the</text><text x="54.108" y="1.67" class="f">same</text><text x="59.118" y="1.67" class="f">task.</text></symbol><symbol id="26"><text y="1.67" class="k">Agents</text><text x="7.014" y="1.67" class="k">involved:</text></symbol><symbol id="27"><text y="1.67" class="f">*</text><text x="2.004" y="1.67" class="h">claude</text><text x="9.018" y="1.67" class="f">-&gt;</text><text x="12.024" y="1.67" class="f">&quot;Use</text><text x="17.034" y="1.67" class="f">OAuth&quot;</text></symbol><symbol id="28"><text y="1.67" class="f">*</text><text x="2.004" y="1.67" class="h">gpt</text><text x="6.012" y="1.67" class="f">-&gt;</text><text x="9.018" y="1.67" class="f">&quot;Use</text><text x="14.028" y="1.67" class="f">JWT&quot;</text></symbol><symbol id="29"><text y="1.67" class="k">Recommended</text><text x="12.024" y="1.67" class="k">Approach:</text></symbol><symbol id="30"><text y="1.67" class="f">Multiple</text><text x="9.018" y="1.67" class="f">AI</text><text x="12.024" y="1.67" class="f">agents</text><text x="19.038" y="1.67" class="f">produced</text><text x="28.056" y="1.67" class="f">conflicting</text><text x="40.08" y="1.67" class="f">suggestions.</text></symbol><symbol id="31"><text y="1.67" class="f">ARC</text><text x="4.008" y="1.67" class="f">resolves</text><text x="13.026" y="1.67" class="f">them</text><text x="18.036" y="1.67" class="f">into</text><text x="23.046" y="1.67" class="f">a</text><text x="25.05" y="1.67" class="f">single</text><text x="32.064" y="1.67" class="f">approach.</text></symbol><symbol id="32"><text y="1.67" class="f">Adopt</text><text x="6.012" y="1.67" class="f">a</text><text x="8.016" y="1.67" class="f">hybrid</text><text x="15.03" y="1.67" class="f">approach:</text></symbol><symbol id="33"><text y="1.67" class="f">*</text><text x="2.004" y="1.67" class="f">Use</text><text x="6.012" y="1.67" class="f">JWT</text><text x="10.02" y="1.67" class="f">for</text><text x="14.028" y="1.67" class="f">internal</text><text x="23.046" y="1.67" class="f">service-to-service</text><text x="42.084" y="1.67" class="f">authentication.</text></symbol><symbol id="34"><text y="1.67" class="f">*</text><text x="2.004" y="1.67" class="f">Use</text><text x="6.012" y="1.67" class="f">OAuth</text><text x="12.024" y="1.67" class="f">for</text><text x="16.032" y="1.67" class="f">third-party</text><text x="28.056" y="1.67" class="f">integrations</text><text x="41.082" y="1.67" class="f">and</text><text x="45.09" y="1.67" class="f">delegated</text><text x="55.11" y="1.67" class="f">access.</text></symbol><symbol id="35"><text y="1.67" class="f">This</text><text x="5.01" y="1.67" class="f">balances</text><text x="14.028" y="1.67" class="f">internal</text><text x="23.046" y="1.67" class="f">simplicity</text><text x="34.068" y="1.67" class="f">with</text><text x="39.078" y="1.67" class="f">secure</text><text x="46.092" y="1.67" class="f">external</text><text x="55.11" y="1.67" class="f">authorization</text><text x="69.138" y="1.67" class="f">standards.</text></symbol><symbol id="36"><text y="1.67" class="f">----------------------------------------</text></symbol><symbol id="37"><text y="1.67" class="f">ARC</text><text x="4.008" y="1.67" class="f">generated</text><text x="14.028" y="1.67" class="f">a</text><text x="16.032" y="1.67" class="f">unified</text><text x="24.048" y="1.67" class="f">approach</text></symbol><symbol id="38"><text y="1.67" class="f">Ending</text><text x="7.014" y="1.67" class="f">demo</text><text x="12.024" y="1.67" class="f">in</text><text x="15.03" y="1.67" class="f">3...</text></symbol><symbol id="39"><text y="1.67" class="f">Ending</text><text x="7.014" y="1.67" class="f">demo</text><text x="12.024" y="1.67" class="f">in</text><text x="15.03" y="1.67" class="f">2...</text></symbol><symbol id="a"><path fill="transparent" d="M0 0h120v45H0z"/></symbol><symbol id="b"><path fill="#6f7683" d="M0 0h1.102v2.171H0z"/></symbol></defs><path class="a" d="M0 0h120v97.695H0z"/><g style="animation-duration:11.214285s;animation-iteration-count:infinite;animation-name:n;animation-timing-function:steps(1,end)"><svg width="4680"><svg><use xlink:href="#a"/><use xlink:href="#b" x="-.004"/></svg><svg x="120"><use xlink:href="#a"/><use xlink:href="#b" x="-.004"/></svg><svg x="240"><use xlink:href="#a"/><use xlink:href="#b" x="-.004" y="2.146"/><use xlink:href="#1"/></svg><svg x="360"><use xlink:href="#a"/><use xlink:href="#b" x="-.004" y="6.488"/><use xlink:href="#1"/><use xlink:href="#2" y="4.342"/></svg><svg x="480"><use xlink:href="#a"/><use xlink:href="#b" x="-.004" y="8.659"/><use xlink:href="#1"/><use xlink:href="#2" y="4.342"/><use xlink:href="#3" y="6.513"/></svg><svg x="600"><use xlink:href="#a"/><use xlink:href="#b" x="-.004" y="10.83"/><use xlink:href="#1"/><use xlink:href="#2" y="4.342"/><use xlink:href="#3" y="6.513"/><use xlink:href="#4" y="8.684"/></svg><svg x="720"><use xlink:href="#a"/><use xlink:href="#b" x="-.004" y="13.001"/><use xlink:href="#1"/><use xlink:href="#2" y="4.342"/><use xlink:href="#3" y="6.513"/><use xlink:href="#4" y="8.684"/><use xlink:href="#5" y="10.855"/></svg><svg x="840"><use xlink:href="#a"/><use xlink:href="#b" x="-.004" y="17.343"/><use xlink:href="#1"/><use xlink:href="#2" y="4.342"/><use xlink:href="#3" y="6.513"/><use xlink:href="#4" y="8.684"/><use xlink:href="#5" y="10.855"/><use xlink:href="#6" y="13.026"/><use xlink:href="#7" y="15.197"/></svg><svg x="960"><use xlink:href="#a"/><use xlink:href="#b" x="-.004" y="23.856"/><use xlink:href="#1"/><use xlink:href="#2" y="4.342"/><use xlink:href="#3" y="6.513"/><use xlink:href="#4" y="8.684"/><use xlink:href="#5" y="10.855"/><use xlink:href="#6" y="13.026"/><use xlink:href="#7" y="15.197"/><use xlink:href="#8" y="19.539"/><use xlink:href="#9" y="21.71"/></svg><svg x="1080"><use xlink:href="#a"/><use xlink:href="#b" x="-.004" y="26.027"/><use xlink:href="#1"/><use xlink:href="#2" y="4.342"/><use xlink:href="#3" y="6.513"/><use xlink:href="#4" y="8.684"/><use xlink:href="#5" y="10.855"/><use xlink:href="#6" y="13.026"/><use xlink:href="#7" y="15.197"/><use xlink:href="#8" y="19.539"/><use xlink:href="#9" y="21.71"/><use xlink:href="#10" y="23.881"/></svg><svg x="1200"><use xlink:href="#a"/><use xlink:href="#b" x="-.004" y="28.198"/><use xlink:href="#1"/><use xlink:href="#2" y="4.342"/><use xlink:href="#3" y="6.513"/><use xlink:href="#4" y="8.684"/><use xlink:href="#5" y="10.855"/><use xlink:href="#6" y="13.026"/><use xlink:href="#7" y="15.197"/><use xlink:href="#8" y="19.539"/><use xlink:href="#9" y="21.71"/><use xlink:href="#10" y="23.881"/><use xlink:href="#11" y="26.052"/></svg><svg x="1320"><use xlink:href="#a"/><use xlink:href="#b" x="-.004" y="30.369"/><use xlink:href="#1"/><use xlink:href="#2" y="4.342"/><use xlink:href="#3" y="6.513"/><use xlink:href="#4" y="8.684"/><use xlink:href="#5" y="10.855"/><use xlink:href="#6" y="13.026"/><use xlink:href="#7" y="15.197"/><use xlink:href="#8" y="19.539"/><use xlink:href="#9" y="21.71"/><use xlink:href="#10" y="23.881"/><use xlink:href="#11" y="26.052"/><use xlink:href="#12" y="28.223"/></svg><svg x="1440"><use xlink:href="#a"/><use xlink:href="#b" x="-.004" y="34.711"/><use xlink:href="#1"/><use xlink:href="#2" y="4.342"/><use xlink:href="#3" y="6.513"/><use xlink:href="#4" y="8.684"/><use xlink:href="#5" y="10.855"/><use xlink:href="#6" y="13.026"/><use xlink:href="#7" y="15.197"/><use xlink:href="#8" y="19.539"/><use xlink:href="#9" y="21.71"/><use xlink:href="#10" y="23.881"/><use xlink:href="#11" y="26.052"/><use xlink:href="#12" y="28.223"/><use xlink:href="#13" y="30.394"/></svg><svg x="1560"><use xlink:href="#a"/><use xlink:href="#b" x="-.004" y="41.224"/><use xlink:href="#1"/><use xlink:href="#2" y="4.342"/><use xlink:href="#3" y="6.513"/><use xlink:href="#4" y="8.684"/><use xlink:href="#5" y="10.855"/><use xlink:href="#6" y="13.026"/><use xlink:href="#7" y="15.197"/><use xlink:href="#8" y="19.539"/><use xlink:href="#9" y="21.71"/><use xlink:href="#10" y="23.881"/><use xlink:href="#11" y="26.052"/><use xlink:href="#12" y="28.223"/><use xlink:href="#13" y="30.394"/><use xlink:href="#14" y="36.907"/><use xlink:href="#15" y="39.078"/></svg><svg x="1680"><use xlink:href="#a"/><use xlink:href="#b" x="-.004" y="43.395"/><use xlink:href="#1"/><use xlink:href="#2" y="4.342"/><use xlink:href="#3" y="6.513"/><use xlink:href="#4" y="8.684"/><use xlink:href="#5" y="10.855"/><use xlink:href="#6" y="13.026"/><use xlink:href="#7" y="15.197"/><use xlink:href="#8" y="19.539"/><use xlink:href="#9" y="21.71"/><use xlink:href="#10" y="23.881"/><use xlink:href="#11" y="26.052"/><use xlink:href="#12" y="28.223"/><use xlink:href="#13" y="30.394"/><use xlink:href="#14" y="36.907"/><use xlink:href="#15" y="39.078"/><use xlink:href="#16" y="41.249"/></svg><svg x="1800"><use xlink:href="#a"/><use xlink:href="#b" x="-.004" y="45.566"/><use xlink:href="#1"/><use xlink:href="#2" y="4.342"/><use xlink:href="#3" y="6.513"/><use xlink:href="#4" y="8.684"/><use xlink:href="#5" y="10.855"/><use xlink:href="#6" y="13.026"/><use xlink:href="#7" y="15.197"/><use xlink:href="#8" y="19.539"/><use xlink:href="#9" y="21.71"/><use xlink:href="#10" y="23.881"/><use xlink:href="#11" y="26.052"/><use xlink:href="#12" y="28.223"/><use xlink:href="#13" y="30.394"/><use xlink:href="#14" y="36.907"/><use xlink:href="#15" y="39.078"/><use xlink:href="#16" y="41.249"/><use xlink:href="#11" y="43.42"/></svg><svg x="1920"><use xlink:href="#a"/><use xlink:href="#b" x="-.004" y="47.737"/><use xlink:href="#1"/><use xlink:href="#2" y="4.342"/><use xlink:href="#3" y="6.513"/><use xlink:href="#4" y="8.684"/><use xlink:href="#5" y="10.855"/><use xlink:href="#6" y="13.026"/><use xlink:href="#7" y="15.197"/><use xlink:href="#8" y="19.539"/><use xlink:href="#9" y="21.71"/><use xlink:href="#10" y="23.881"/><use xlink:href="#11" y="26.052"/><use xlink:href="#12" y="28.223"/><use xlink:href="#13" y="30.394"/><use xlink:href="#14" y="36.907"/><use xlink:href="#15" y="39.078"/><use xlink:href="#16" y="41.249"/><use xlink:href="#11" y="43.42"/><use xlink:href="#17" y="45.591"/></svg><svg x="2040"><use xlink:href="#a"/><use xlink:href="#b" x="-.004" y="52.079"/><use xlink:href="#1"/><use xlink:href="#2" y="4.342"/><use xlink:href="#3" y="6.513"/><use xlink:href="#4" y="8.684"/><use xlink:href="#5" y="10.855"/><use xlink:href="#6" y="13.026"/><use xlink:href="#7" y="15.197"/><use xlink:href="#8" y="19.539"/><use xlink:href="#9" y="21.71"/><use xlink:href="#10" y="23.881"/><use xlink:href="#11" y="26.052"/><use xlink:href="#12" y="28.223"/><use xlink:href="#13" y="30.394"/><use xlink:href="#14" y="36.907"/><use xlink:href="#15" y="39.078"/><use xlink:href="#16" y="41.249"/><use xlink:href="#11" y="43.42"/><use xlink:href="#17" y="45.591"/><use xlink:href="#13" y="47.762"/></svg><svg x="2160"><use xlink:href="#a"/><use xlink:href="#b" x="-.004" y="58.592"/><use xlink:href="#1"/><use xlink:href="#2" y="4.342"/><use xlink:href="#3" y="6.513"/><use xlink:href="#4" y="8.684"/><use xlink:href="#5" y="10.855"/><use xlink:href="#6" y="13.026"/><use xlink:href="#7" y="15.197"/><use xlink:href="#8" y="19.539"/><use xlink:href="#9" y="21.71"/><use xlink:href="#10" y="23.881"/><use xlink:href="#11" y="26.052"/><use xlink:href="#12" y="28.223"/><use xlink:href="#13" y="30.394"/><use xlink:href="#14" y="36.907"/><use xlink:href="#15" y="39.078"/><use xlink:href="#16" y="41.249"/><use xlink:href="#11" y="43.42"/><use xlink:href="#17" y="45.591"/><use xlink:href="#13" y="47.762"/><use xlink:href="#18" y="54.275"/><use xlink:href="#19" y="56.446"/></svg><svg x="2280"><use xlink:href="#a"/><use xlink:href="#b" x="-.004" y="62.934"/><use xlink:href="#1"/><use xlink:href="#2" y="4.342"/><use xlink:href="#3" y="6.513"/><use xlink:href="#4" y="8.684"/><use xlink:href="#5" y="10.855"/><use xlink:href="#6" y="13.026"/><use xlink:href="#7" y="15.197"/><use xlink:href="#8" y="19.539"/><use xlink:href="#9" y="21.71"/><use xlink:href="#10" y="23.881"/><use xlink:href="#11" y="26.052"/><use xlink:href="#12" y="28.223"/><use xlink:href="#13" y="30.394"/><use xlink:href="#14" y="36.907"/><use xlink:href="#15" y="39.078"/><use xlink:href="#16" y="41.249"/><use xlink:href="#11" y="43.42"/><use xlink:href="#17" y="45.591"/><use xlink:href="#13" y="47.762"/><use xlink:href="#18" y="54.275"/><use xlink:href="#19" y="56.446"/><use xlink:href="#20" y="60.788"/></svg><svg x="2400"><use xlink:href="#a"/><use xlink:href="#b" x="-.004" y="65.105"/><use xlink:href="#1"/><use xlink:href="#2" y="4.342"/><use xlink:href="#3" y="6.513"/><use xlink:href="#4" y="8.684"/><use xlink:href="#5" y="10.855"/><use xlink:href="#6" y="13.026"/><use xlink:href="#7" y="15.197"/><use xlink:href="#8" y="19.539"/><use xlink:href="#9" y="21.71"/><use xlink:href="#10" y="23.881"/><use xlink:href="#11" y="26.052"/><use xlink:href="#12" y="28.223"/><use xlink:href="#13" y="30.394"/><use xlink:href="#14" y="36.907"/><use xlink:href="#15" y="39.078"/><use xlink:href="#16" y="41.249"/><use xlink:href="#11" y="43.42"/><use xlink:href="#17" y="45.591"/><use xlink:href="#13" y="47.762"/><use xlink:href="#18" y="54.275"/><use xlink:href="#19" y="56.446"/><use xlink:href="#20" y="60.788"/></svg><svg x="2520"><use xlink:href="#a"/><use xlink:href="#b" x="-.004" y="67.276"/><use xlink:href="#1"/><use xlink:href="#2" y="4.342"/><use xlink:href="#3" y="6.513"/><use xlink:href="#4" y="8.684"/><use xlink:href="#5" y="10.855"/><use xlink:href="#6" y="13.026"/><use xlink:href="#7" y="15.197"/><use xlink:href="#8" y="19.539"/><use xlink:href="#9" y="21.71"/><use xlink:href="#10" y="23.881"/><use xlink:href="#11" y="26.052"/><use xlink:href="#12" y="28.223"/><use xlink:href="#13" y="30.394"/><use xlink:href="#14" y="36.907"/><use xlink:href="#15" y="39.078"/><use xlink:href="#16" y="41.249"/><use xlink:href="#11" y="43.42"/><use xlink:href="#17" y="45.591"/><use xlink:href="#13" y="47.762"/><use xlink:href="#18" y="54.275"/><use xlink:href="#19" y="56.446"/><use xlink:href="#20" y="60.788"/><use xlink:href="#21" y="65.13"/></svg><svg x="2640"><use xlink:href="#a"/><use xlink:href="#b" x="-.004" y="71.618"/><use xlink:href="#1"/><use xlink:href="#2" y="4.342"/><use xlink:href="#3" y="6.513"/><use xlink:href="#4" y="8.684"/><use xlink:href="#5" y="10.855"/><use xlink:href="#6" y="13.026"/><use xlink:href="#7" y="15.197"/><use xlink:href="#8" y="19.539"/><use xlink:href="#9" y="21.71"/><use xlink:href="#10" y="23.881"/><use xlink:href="#11" y="26.052"/><use xlink:href="#12" y="28.223"/><use xlink:href="#13" y="30.394"/><use xlink:href="#14" y="36.907"/><use xlink:href="#15" y="39.078"/><use xlink:href="#16" y="41.249"/><use xlink:href="#11" y="43.42"/><use xlink:href="#17" y="45.591"/><use xlink:href="#13" y="47.762"/><use xlink:href="#18" y="54.275"/><use xlink:href="#19" y="56.446"/><use xlink:href="#20" y="60.788"/><use xlink:href="#21" y="65.13"/><use xlink:href="#22" y="67.301"/></svg><svg x="2760"><use xlink:href="#a"/><use xlink:href="#b" x="-.004" y="73.789"/><use xlink:href="#1"/><use xlink:href="#2" y="4.342"/><use xlink:href="#3" y="6.513"/><use xlink:href="#4" y="8.684"/><use xlink:href="#5" y="10.855"/><use xlink:href="#6" y="13.026"/><use xlink:href="#7" y="15.197"/><use xlink:href="#8" y="19.539"/><use xlink:href="#9" y="21.71"/><use xlink:href="#10" y="23.881"/><use xlink:href="#11" y="26.052"/><use xlink:href="#12" y="28.223"/><use xlink:href="#13" y="30.394"/><use xlink:href="#14" y="36.907"/><use xlink:href="#15" y="39.078"/><use xlink:href="#16" y="41.249"/><use xlink:href="#11" y="43.42"/><use xlink:href="#17" y="45.591"/><use xlink:href="#13" y="47.762"/><use xlink:href="#18" y="54.275"/><use xlink:href="#19" y="56.446"/><use xlink:href="#20" y="60.788"/><use xlink:href="#21" y="65.13"/><use xlink:href="#22" y="67.301"/><use xlink:href="#23" y="71.643"/></svg><svg x="2880"><use xlink:href="#a"/><use xlink:href="#b" x="-.004" y="78.131"/><use xlink:href="#1"/><use xlink:href="#2" y="4.342"/><use xlink:href="#3" y="6.513"/><use xlink:href="#4" y="8.684"/><use xlink:href="#5" y="10.855"/><use xlink:href="#6" y="13.026"/><use xlink:href="#7" y="15.197"/><use xlink:href="#8" y="19.539"/><use xlink:href="#9" y="21.71"/><use xlink:href="#10" y="23.881"/><use xlink:href="#11" y="26.052"/><use xlink:href="#12" y="28.223"/><use xlink:href="#13" y="30.394"/><use xlink:href="#14" y="36.907"/><use xlink:href="#15" y="39.078"/><use xlink:href="#16" y="41.249"/><use xlink:href="#11" y="43.42"/><use xlink:href="#17" y="45.591"/><use xlink:href="#13" y="47.762"/><use xlink:href="#18" y="54.275"/><use xlink:href="#19" y="56.446"/><use xlink:href="#20" y="60.788"/><use xlink:href="#21" y="65.13"/><use xlink:href="#22" y="67.301"/><use xlink:href="#23" y="71.643"/><use xlink:href="#24" y="75.985"/></svg><svg x="3000"><use xlink:href="#a"/><use xlink:href="#b" x="-.004" y="80.302"/><use xlink:href="#1"/><use xlink:href="#2" y="4.342"/><use xlink:href="#3" y="6.513"/><use xlink:href="#4" y="8.684"/><use xlink:href="#5" y="10.855"/><use xlink:href="#6" y="13.026"/><use xlink:href="#7" y="15.197"/><use xlink:href="#8" y="19.539"/><use xlink:href="#9" y="21.71"/><use xlink:href="#10" y="23.881"/><use xlink:href="#11" y="26.052"/><use xlink:href="#12" y="28.223"/><use xlink:href="#13" y="30.394"/><use xlink:href="#14" y="36.907"/><use xlink:href="#15" y="39.078"/><use xlink:href="#16" y="41.249"/><use xlink:href="#11" y="43.42"/><use xlink:href="#17" y="45.591"/><use xlink:href="#13" y="47.762"/><use xlink:href="#18" y="54.275"/><use xlink:href="#19" y="56.446"/><use xlink:href="#20" y="60.788"/><use xlink:href="#21" y="65.13"/><use xlink:href="#22" y="67.301"/><use xlink:href="#23" y="71.643"/><use xlink:href="#24" y="75.985"/><use xlink:href="#25" y="78.156"/></svg><svg x="3120"><use xlink:href="#a"/><use xlink:href="#b" x="-.004" y="82.473"/><use xlink:href="#1"/><use xlink:href="#2" y="4.342"/><use xlink:href="#3" y="6.513"/><use xlink:href="#4" y="8.684"/><use xlink:href="#5" y="10.855"/><use xlink:href="#6" y="13.026"/><use xlink:href="#7" y="15.197"/><use xlink:href="#8" y="19.539"/><use xlink:href="#9" y="21.71"/><use xlink:href="#10" y="23.881"/><use xlink:href="#11" y="26.052"/><use xlink:href="#12" y="28.223"/><use xlink:href="#13" y="30.394"/><use xlink:href="#14" y="36.907"/><use xlink:href="#15" y="39.078"/><use xlink:href="#16" y="41.249"/><use xlink:href="#11" y="43.42"/><use xlink:href="#17" y="45.591"/><use xlink:href="#13" y="47.762"/><use xlink:href="#18" y="54.275"/><use xlink:href="#19" y="56.446"/><use xlink:href="#20" y="60.788"/><use xlink:href="#21" y="65.13"/><use xlink:href="#22" y="67.301"/><use xlink:href="#23" y="71.643"/><use xlink:href="#24" y="75.985"/><use xlink:href="#25" y="78.156"/></svg><svg x="3240"><use xlink:href="#a"/><use xlink:href="#b" x="-.004" y="84.644"/><use xlink:href="#1"/><use xlink:href="#2" y="4.342"/><use xlink:href="#3" y="6.513"/><use xlink:href="#4" y="8.684"/><use xlink:href="#5" y="10.855"/><use xlink:href="#6" y="13.026"/><use xlink:href="#7" y="15.197"/><use xlink:href="#8" y="19.539"/><use xlink:href="#9" y="21.71"/><use xlink:href="#10" y="23.881"/><use xlink:href="#11" y="26.052"/><use xlink:href="#12" y="28.223"/><use xlink:href="#13" y="30.394"/><use xlink:href="#14" y="36.907"/><use xlink:href="#15" y="39.078"/><use xlink:href="#16" y="41.249"/><use xlink:href="#11" y="43.42"/><use xlink:href="#17" y="45.591"/><use xlink:href="#13" y="47.762"/><use xlink:href="#18" y="54.275"/><use xlink:href="#19" y="56.446"/><use xlink:href="#20" y="60.788"/><use xlink:href="#21" y="65.13"/><use xlink:href="#22" y="67.301"/><use xlink:href="#23" y="71.643"/><use xlink:href="#24" y="75.985"/><use xlink:href="#25" y="78.156"/><use xlink:href="#26" y="82.498"/></svg><svg x="3360"><use xlink:href="#a"/><use xlink:href="#b" x="-.004" y="86.815"/><use xlink:href="#1"/><use xlink:href="#2" y="4.342"/><use xlink:href="#3" y="6.513"/><use xlink:href="#4" y="8.684"/><use xlink:href="#5" y="10.855"/><use xlink:href="#6" y="13.026"/><use xlink:href="#7" y="15.197"/><use xlink:href="#8" y="19.539"/><use xlink:href="#9" y="21.71"/><use xlink:href="#10" y="23.881"/><use xlink:href="#11" y="26.052"/><use xlink:href="#12" y="28.223"/><use xlink:href="#13" y="30.394"/><use xlink:href="#14" y="36.907"/><use xlink:href="#15" y="39.078"/><use xlink:href="#16" y="41.249"/><use xlink:href="#11" y="43.42"/><use xlink:href="#17" y="45.591"/><use xlink:href="#13" y="47.762"/><use xlink:href="#18" y="54.275"/><use xlink:href="#19" y="56.446"/><use xlink:href="#20" y="60.788"/><use xlink:href="#21" y="65.13"/><use xlink:href="#22" y="67.301"/><use xlink:href="#23" y="71.643"/><use xlink:href="#24" y="75.985"/><use xlink:href="#25" y="78.156"/><use xlink:href="#26" y="82.498"/></svg><svg x="3480"><use xlink:href="#a"/><use xlink:href="#b" x="-.004" y="88.986"/><use xlink:href="#1"/><use xlink:href="#2" y="4.342"/><use xlink:href="#3" y="6.513"/><use xlink:href="#4" y="8.684"/><use xlink:href="#5" y="10.855"/><use xlink:href="#6" y="13.026"/><use xlink:href="#7" y="15.197"/><use xlink:href="#8" y="19.539"/><use xlink:href="#9" y="21.71"/><use xlink:href="#10" y="23.881"/><use xlink:href="#11" y="26.052"/><use xlink:href="#12" y="28.223"/><use xlink:href="#13" y="30.394"/><use xlink:href="#14" y="36.907"/><use xlink:href="#15" y="39.078"/><use xlink:href="#16" y="41.249"/><use xlink:href="#11" y="43.42"/><use xlink:href="#17" y="45.591"/><use xlink:href="#13" y="47.762"/><use xlink:href="#18" y="54.275"/><use xlink:href="#19" y="56.446"/><use xlink:href="#20" y="60.788"/><use xlink:href="#21" y="65.13"/><use xlink:href="#22" y="67.301"/><use xlink:href="#23" y="71.643"/><use xlink:href="#24" y="75.985"/><use xlink:href="#25" y="78.156"/><use xlink:href="#26" y="82.498"/><use xlink:href="#27" y="86.84"/></svg><svg x="3600"><use xlink:href="#a"/><use xlink:href="#b" x="-.004" y="91.157"/><use xlink:href="#1"/><use xlink:href="#2" y="4.342"/><use xlink:href="#3" y="6.513"/><use xlink:href="#4" y="8.684"/><use xlink:href="#5" y="10.855"/><use xlink:href="#6" y="13.026"/><use xlink:href="#7" y="15.197"/><use xlink:href="#8" y="19.539"/><use xlink:href="#9" y="21.71"/><use xlink:href="#10" y="23.881"/><use xlink:href="#11" y="26.052"/><use xlink:href="#12" y="28.223"/><use xlink:href="#13" y="30.394"/><use xlink:href="#14" y="36.907"/><use xlink:href="#15" y="39.078"/><use xlink:href="#16" y="41.249"/><use xlink:href="#11" y="43.42"/><use xlink:href="#17" y="45.591"/><use xlink:href="#13" y="47.762"/><use xlink:href="#18" y="54.275"/><use xlink:href="#19" y="56.446"/><use xlink:href="#20" y="60.788"/><use xlink:href="#21" y="65.13"/><use xlink:href="#22" y="67.301"/><use xlink:href="#23" y="71.643"/><use xlink:href="#24" y="75.985"/><use xlink:href="#25" y="78.156"/><use xlink:href="#26" y="82.498"/><use xlink:href="#27" y="86.84"/><use xlink:href="#28" y="89.011"/></svg><svg x="3720"><use xlink:href="#a"/><use xlink:href="#b" x="-.004" y="95.499"/><use xlink:href="#1"/><use xlink:href="#2" y="4.342"/><use xlink:href="#3" y="6.513"/><use xlink:href="#4" y="8.684"/><use xlink:href="#5" y="10.855"/><use xlink:href="#6" y="13.026"/><use xlink:href="#7" y="15.197"/><use xlink:href="#8" y="19.539"/><use xlink:href="#9" y="21.71"/><use xlink:href="#10" y="23.881"/><use xlink:href="#11" y="26.052"/><use xlink:href="#12" y="28.223"/><use xlink:href="#13" y="30.394"/><use xlink:href="#14" y="36.907"/><use xlink:href="#15" y="39.078"/><use xlink:href="#16" y="41.249"/><use xlink:href="#11" y="43.42"/><use xlink:href="#17" y="45.591"/><use xlink:href="#13" y="47.762"/><use xlink:href="#18" y="54.275"/><use xlink:href="#19" y="56.446"/><use xlink:href="#20" y="60.788"/><use xlink:href="#21" y="65.13"/><use xlink:href="#22" y="67.301"/><use xlink:href="#23" y="71.643"/><use xlink:href="#24" y="75.985"/><use xlink:href="#25" y="78.156"/><use xlink:href="#26" y="82.498"/><use xlink:href="#27" y="86.84"/><use xlink:href="#28" y="89.011"/><use xlink:href="#29" y="93.353"/></svg><svg x="3840"><use xlink:href="#a"/><use xlink:href="#b" x="-.004" y="95.499"/><use xlink:href="#2"/><use xlink:href="#3" y="2.171"/><use xlink:href="#4" y="4.342"/><use xlink:href="#5" y="6.513"/><use xlink:href="#6" y="8.684"/><use xlink:href="#7" y="10.855"/><use xlink:href="#8" y="15.197"/><use xlink:href="#9" y="17.368"/><use xlink:href="#10" y="19.539"/><use xlink:href="#11" y="21.71"/><use xlink:href="#12" y="23.881"/><use xlink:href="#13" y="26.052"/><use xlink:href="#14" y="32.565"/><use xlink:href="#15" y="34.736"/><use xlink:href="#16" y="36.907"/><use xlink:href="#11" y="39.078"/><use xlink:href="#17" y="41.249"/><use xlink:href="#13" y="43.42"/><use xlink:href="#18" y="49.933"/><use xlink:href="#19" y="52.104"/><use xlink:href="#20" y="56.446"/><use xlink:href="#21" y="60.788"/><use xlink:href="#22" y="62.959"/><use xlink:href="#23" y="67.301"/><use xlink:href="#24" y="71.643"/><use xlink:href="#25" y="73.814"/><use xlink:href="#26" y="78.156"/><use xlink:href="#27" y="82.498"/><use xlink:href="#28" y="84.669"/><use xlink:href="#29" y="89.011"/><use xlink:href="#30" y="91.182"/><use xlink:href="#31" y="93.353"/></svg><svg x="3960"><use xlink:href="#a"/><use xlink:href="#b" x="-.004" y="95.499"/><use xlink:href="#7"/><use xlink:href="#8" y="4.342"/><use xlink:href="#9" y="6.513"/><use xlink:href="#10" y="8.684"/><use xlink:href="#11" y="10.855"/><use xlink:href="#12" y="13.026"/><use xlink:href="#13" y="15.197"/><use xlink:href="#14" y="21.71"/><use xlink:href="#15" y="23.881"/><use xlink:href="#16" y="26.052"/><use xlink:href="#11" y="28.223"/><use xlink:href="#17" y="30.394"/><use xlink:href="#13" y="32.565"/><use xlink:href="#18" y="39.078"/><use xlink:href="#19" y="41.249"/><use xlink:href="#20" y="45.591"/><use xlink:href="#21" y="49.933"/><use xlink:href="#22" y="52.104"/><use xlink:href="#23" y="56.446"/><use xlink:href="#24" y="60.788"/><use xlink:href="#25" y="62.959"/><use xlink:href="#26" y="67.301"/><use xlink:href="#27" y="71.643"/><use xlink:href="#28" y="73.814"/><use xlink:href="#29" y="78.156"/><use xlink:href="#30" y="80.327"/><use xlink:href="#31" y="82.498"/><use xlink:href="#32" y="86.84"/><use xlink:href="#33" y="89.011"/><use xlink:href="#34" y="91.182"/></svg><svg x="4080"><use xlink:href="#a"/><use xlink:href="#b" x="-.004" y="95.499"/><use xlink:href="#8" y="2.171"/><use xlink:href="#9" y="4.342"/><use xlink:href="#10" y="6.513"/><use xlink:href="#11" y="8.684"/><use xlink:href="#12" y="10.855"/><use xlink:href="#13" y="13.026"/><use xlink:href="#14" y="19.539"/><use xlink:href="#15" y="21.71"/><use xlink:href="#16" y="23.881"/><use xlink:href="#11" y="26.052"/><use xlink:href="#17" y="28.223"/><use xlink:href="#13" y="30.394"/><use xlink:href="#18" y="36.907"/><use xlink:href="#19" y="39.078"/><use xlink:href="#20" y="43.42"/><use xlink:href="#21" y="47.762"/><use xlink:href="#22" y="49.933"/><use xlink:href="#23" y="54.275"/><use xlink:href="#24" y="58.617"/><use xlink:href="#25" y="60.788"/><use xlink:href="#26" y="65.13"/><use xlink:href="#27" y="69.472"/><use xlink:href="#28" y="71.643"/><use xlink:href="#29" y="75.985"/><use xlink:href="#30" y="78.156"/><use xlink:href="#31" y="80.327"/><use xlink:href="#32" y="84.669"/><use xlink:href="#33" y="86.84"/><use xlink:href="#34" y="89.011"/><use xlink:href="#35" y="93.353"/></svg><svg x="4200"><use xlink:href="#a"/><use xlink:href="#b" x="-.004" y="95.499"/><use xlink:href="#10"/><use xlink:href="#11" y="2.171"/><use xlink:href="#12" y="4.342"/><use xlink:href="#13" y="6.513"/><use xlink:href="#14" y="13.026"/><use xlink:href="#15" y="15.197"/><use xlink:href="#16" y="17.368"/><use xlink:href="#11" y="19.539"/><use xlink:href="#17" y="21.71"/><use xlink:href="#13" y="23.881"/><use xlink:href="#18" y="30.394"/><use xlink:href="#19" y="32.565"/><use xlink:href="#20" y="36.907"/><use xlink:href="#21" y="41.249"/><use xlink:href="#22" y="43.42"/><use xlink:href="#23" y="47.762"/><use xlink:href="#24" y="52.104"/><use xlink:href="#25" y="54.275"/><use xlink:href="#26" y="58.617"/><use xlink:href="#27" y="62.959"/><use xlink:href="#28" y="65.13"/><use xlink:href="#29" y="69.472"/><use xlink:href="#30" y="71.643"/><use xlink:href="#31" y="73.814"/><use xlink:href="#32" y="78.156"/><use xlink:href="#33" y="80.327"/><use xlink:href="#34" y="82.498"/><use xlink:href="#35" y="86.84"/><use xlink:href="#36" y="91.182"/><use xlink:href="#37" y="93.353"/></svg><svg x="4320"><use xlink:href="#a"/><use xlink:href="#b" x="-.004" y="95.499"/><use xlink:href="#12"/><use xlink:href="#13" y="2.171"/><use xlink:href="#14" y="8.684"/><use xlink:href="#15" y="10.855"/><use xlink:href="#16" y="13.026"/><use xlink:href="#11" y="15.197"/><use xlink:href="#17" y="17.368"/><use xlink:href="#13" y="19.539"/><use xlink:href="#18" y="26.052"/><use xlink:href="#19" y="28.223"/><use xlink:href="#20" y="32.565"/><use xlink:href="#21" y="36.907"/><use xlink:href="#22" y="39.078"/><use xlink:href="#23" y="43.42"/><use xlink:href="#24" y="47.762"/><use xlink:href="#25" y="49.933"/><use xlink:href="#26" y="54.275"/><use xlink:href="#27" y="58.617"/><use xlink:href="#28" y="60.788"/><use xlink:href="#29" y="65.13"/><use xlink:href="#30" y="67.301"/><use xlink:href="#31" y="69.472"/><use xlink:href="#32" y="73.814"/><use xlink:href="#33" y="75.985"/><use xlink:href="#34" y="78.156"/><use xlink:href="#35" y="82.498"/><use xlink:href="#36" y="86.84"/><use xlink:href="#37" y="89.011"/><use xlink:href="#36" y="91.182"/><use xlink:href="#38" y="93.353"/></svg><svg x="4440"><use xlink:href="#a"/><use xlink:href="#b" x="-.004" y="95.499"/><use xlink:href="#13"/><use xlink:href="#14" y="6.513"/><use xlink:href="#15" y="8.684"/><use xlink:href="#16" y="10.855"/><use xlink:href="#11" y="13.026"/><use xlink:href="#17" y="15.197"/><use xlink:href="#13" y="17.368"/><use xlink:href="#18" y="23.881"/><use xlink:href="#19" y="26.052"/><use xlink:href="#20" y="30.394"/><use xlink:href="#21" y="34.736"/><use xlink:href="#22" y="36.907"/><use xlink:href="#23" y="41.249"/><use xlink:href="#24" y="45.591"/><use xlink:href="#25" y="47.762"/><use xlink:href="#26" y="52.104"/><use xlink:href="#27" y="56.446"/><use xlink:href="#28" y="58.617"/><use xlink:href="#29" y="62.959"/><use xlink:href="#30" y="65.13"/><use xlink:href="#31" y="67.301"/><use xlink:href="#32" y="71.643"/><use xlink:href="#33" y="73.814"/><use xlink:href="#34" y="75.985"/><use xlink:href="#35" y="80.327"/><use xlink:href="#36" y="84.669"/><use xlink:href="#37" y="86.84"/><use xlink:href="#36" y="89.011"/><use xlink:href="#38" y="91.182"/><use xlink:href="#39" y="93.353"/></svg><svg x="4560"><use xlink:href="#a"/><use xlink:href="#b" x="-.004" y="95.499"/><use xlink:href="#14" y="4.342"/><use xlink:href="#15" y="6.513"/><use xlink:href="#16" y="8.684"/><use xlink:href="#11" y="10.855"/><use xlink:href="#17" y="13.026"/><use xlink:href="#13" y="15.197"/><use xlink:href="#18" y="21.71"/><use xlink:href="#19" y="23.881"/><use xlink:href="#20" y="28.223"/><use xlink:href="#21" y="32.565"/><use xlink:href="#22" y="34.736"/><use xlink:href="#23" y="39.078"/><use xlink:href="#24" y="43.42"/><use xlink:href="#25" y="45.591"/><use xlink:href="#26" y="49.933"/><use xlink:href="#27" y="54.275"/><use xlink:href="#28" y="56.446"/><use xlink:href="#29" y="60.788"/><use xlink:href="#30" y="62.959"/><use xlink:href="#31" y="65.13"/><use xlink:href="#32" y="69.472"/><use xlink:href="#33" y="71.643"/><use xlink:href="#34" y="73.814"/><use xlink:href="#35" y="78.156"/><use xlink:href="#36" y="82.498"/><use xlink:href="#37" y="84.669"/><use xlink:href="#36" y="86.84"/><use xlink:href="#38" y="89.011"/><use xlink:href="#39" y="91.182"/><text y="95.023" class="f">Ending</text><text x="7.014" y="95.023" class="f">demo</text><text x="12.024" y="95.023" class="f">in</text><text x="15.03" y="95.023" class="f">1...</text></svg></svg></g></g></svg></svg>